<svg width="21" height="22" viewBox="0 0 21 22" fill="none" xmlns="http://www.w3.org/2000/svg">
<path d="M13.6204 1.29625C13.8595 1.04458 14.1474 0.844184 14.4664 0.707247C14.7855 0.57031 15.129 0.499695 15.4762 0.499695C15.8234 0.499695 16.167 0.57031 16.486 0.707247C16.8051 0.844184 17.0929 1.04458 17.3321 1.29625L19.5021 3.545C20.5294 4.60725 20.5294 6.3275 19.5021 7.3915L6.13911 21.234C6.05932 21.3176 5.96349 21.3843 5.85735 21.43C5.7512 21.4757 5.63693 21.4995 5.52136 21.5H0.875113C0.639009 21.4954 0.414353 21.3974 0.250349 21.2275C0.0863453 21.0576 -0.00363647 20.8296 0.000112627 20.5935V15.781C0.000112627 15.5413 0.0928625 15.3103 0.255612 15.1405L13.6204 1.298V1.29625ZM16.0949 2.57725C16.0151 2.49344 15.9191 2.42671 15.8128 2.38111C15.7064 2.33551 15.5919 2.312 15.4762 2.312C15.3605 2.312 15.246 2.33551 15.1397 2.38111C15.0333 2.42671 14.9374 2.49344 14.8576 2.57725L12.8504 4.65625L16.2594 8.18775L18.2666 6.10875C18.431 5.936 18.5226 5.70669 18.5226 5.46825C18.5226 5.22982 18.431 5.0005 18.2666 4.82775L16.0966 2.57725H16.0949ZM15.0221 9.46875L11.6131 5.939L1.75011 16.1573V19.687H5.15911L15.0221 9.46875ZM16.0004 15.4188C15.7646 15.4234 15.5402 15.5211 15.3762 15.6906C15.2123 15.8602 15.1221 16.0877 15.1254 16.3235C15.1216 16.5596 15.2116 16.7876 15.3756 16.9575C15.5396 17.1274 15.7643 17.2254 16.0004 17.23H20.1251C20.3612 17.2254 20.5859 17.1274 20.7499 16.9575C20.9139 16.7876 21.0039 16.5596 21.0001 16.3235C21.0034 16.0877 20.9132 15.8602 20.7493 15.6906C20.5853 15.5211 20.3609 15.4234 20.1251 15.4188H16.0004ZM11.8651 19.687C11.629 19.6916 11.4044 19.7896 11.2403 19.9595C11.0763 20.1294 10.9864 20.3574 10.9901 20.5935C10.9864 20.8296 11.0763 21.0576 11.2403 21.2275C11.4044 21.3974 11.629 21.4954 11.8651 21.5H20.1146C20.3507 21.4954 20.5754 21.3974 20.7394 21.2275C20.9034 21.0576 20.9934 20.8296 20.9896 20.5935C20.9934 20.3574 20.9034 20.1294 20.7394 19.9595C20.5754 19.7896 20.3507 19.6916 20.1146 19.687H11.8651Z" fill="black"/>
</svg>
