<svg width="18" height="18" viewBox="0 0 18 18" fill="none" xmlns="http://www.w3.org/2000/svg">
<g clip-path="url(#clip0_5_157)">
<path d="M17.396 15.7856C17.2358 15.7856 17.0821 15.722 16.9689 15.6087C16.8556 15.4954 16.7919 15.3418 16.7919 15.1816V13.5075C16.3988 14.1859 15.9187 14.8101 15.364 15.3642C13.247 17.4816 10.3378 18.3229 7.5906 17.8895C5.76005 17.6018 4.06376 16.7534 2.73546 15.4613C2.67124 15.4127 2.61738 15.3519 2.57702 15.2822C2.53667 15.2126 2.51064 15.1356 2.50047 15.0557C2.4903 14.9758 2.49619 14.8948 2.5178 14.8172C2.5394 14.7397 2.57628 14.6672 2.62628 14.6042C2.67627 14.5411 2.73837 14.4886 2.80892 14.4499C2.87948 14.4111 2.95706 14.3869 3.03712 14.3785C3.11718 14.3702 3.19809 14.378 3.27511 14.4013C3.35213 14.4247 3.4237 14.4633 3.48562 14.5147L3.49027 14.51C4.60574 15.629 6.03634 16.3805 7.5906 16.6641V16.6639C10.0239 17.1094 12.6283 16.3917 14.5099 14.5099C15.0818 13.9389 15.5614 13.2823 15.9313 12.5637H14.1747C14.0145 12.5637 13.8608 12.5001 13.7476 12.3868C13.6343 12.2735 13.5707 12.1199 13.5707 11.9597C13.5707 11.7995 13.6343 11.6458 13.7476 11.5325C13.8608 11.4192 14.0145 11.3556 14.1747 11.3556H17.396C17.5562 11.3556 17.7098 11.4192 17.8231 11.5325C17.9364 11.6458 18 11.7995 18 11.9597V15.1816C18 15.3418 17.9364 15.4954 17.8231 15.6087C17.7098 15.722 17.5562 15.7856 17.396 15.7856ZM11.4161 5.5768C11.6831 5.5768 11.9392 5.68287 12.128 5.87168C12.3168 6.06049 12.4228 6.31657 12.4228 6.58359V11.4162C12.4228 11.6832 12.3168 11.9393 12.128 12.1281C11.9392 12.3169 11.6831 12.423 11.4161 12.423H6.58389C6.3169 12.423 6.06083 12.3169 5.87204 12.1281C5.68324 11.9393 5.57718 11.6832 5.57718 11.4162V6.58359C5.57718 6.31657 5.68324 6.06049 5.87204 5.87168C6.06083 5.68287 6.3169 5.5768 6.58389 5.5768H11.4161ZM6.78523 10.9128C6.78523 10.9929 6.81705 11.0697 6.87369 11.1264C6.93033 11.183 7.00715 11.2148 7.08725 11.2148H10.9128C10.9929 11.2148 11.0697 11.183 11.1263 11.1264C11.1829 11.0697 11.2148 10.9929 11.2148 10.9128V7.08699C11.2148 7.00688 11.1829 6.93006 11.1263 6.87341C11.0697 6.81677 10.9929 6.78495 10.9128 6.78495H7.08725C7.00715 6.78495 6.93033 6.81677 6.87369 6.87341C6.81705 6.93006 6.78523 7.00688 6.78523 7.08699V10.9128ZM14.8994 3.62313C14.7589 3.62334 14.6227 3.57431 14.5145 3.48455L14.5099 3.4892C13.9414 2.91993 13.2882 2.44225 12.5734 2.07318H12.5732C9.64069 0.559327 5.94858 1.03121 3.49027 3.48973C2.9183 4.06071 2.43873 4.71728 2.06879 5.43585H3.8255C3.9857 5.43585 4.13934 5.4995 4.25261 5.61278C4.36589 5.72607 4.42953 5.87971 4.42953 6.03993C4.42953 6.20014 4.36589 6.35378 4.25261 6.46707C4.13934 6.58036 3.9857 6.644 3.8255 6.644H0.604027C0.443829 6.644 0.290192 6.58036 0.176915 6.46707C0.0636384 6.35378 0 6.20014 0 6.03993V2.8182C0 2.65799 0.0636384 2.50434 0.176915 2.39106C0.290192 2.27777 0.443829 2.21413 0.604027 2.21413C0.764225 2.21413 0.917861 2.27777 1.03114 2.39106C1.14442 2.50434 1.20805 2.65799 1.20805 2.8182V4.49207C1.60125 3.81369 2.0813 3.18954 2.63603 2.63543C5.09358 0.177714 8.61842 -0.560585 11.7181 0.418739V0.417833C13.0493 0.838483 14.2638 1.5645 15.2646 2.53795C15.3653 2.61443 15.4395 2.7206 15.4767 2.84148C15.5139 2.96237 15.5122 3.09187 15.4718 3.21174C15.4315 3.3316 15.3545 3.43579 15.2519 3.50959C15.1492 3.5834 15.0259 3.62311 14.8994 3.62313Z" fill="black"/>
</g>
<defs>
<clipPath id="clip0_5_157">
<rect width="18" height="18" fill="white"/>
</clipPath>
</defs>
</svg>
